<svg width="16" height="16" viewBox="0 0 16 16" fill="none" xmlns="http://www.w3.org/2000/svg">
<path d="M8.75 4.29334C8.75 3.87913 8.41421 3.54334 8 3.54334C7.58579 3.54334 7.25 3.87913 7.25 4.29334H8H8.75ZM7.25 6.51334C7.25 6.92756 7.58579 7.26334 8 7.26334C8.41421 7.26334 8.75 6.92756 8.75 6.51334H8H7.25ZM3.15333 8.69334L2.51119 8.30584L2.50995 8.30792L3.15333 8.69334ZM2.30667 10.1067L1.66328 9.72125L1.66225 9.72298L2.30667 10.1067ZM3.10667 12.2733L2.8695 12.9849L2.86994 12.985L3.10667 12.2733ZM12.9267 12.2733L13.1634 12.985L13.1638 12.9849L12.9267 12.2733ZM13.7267 10.1067L14.3703 9.72158L14.3701 9.72125L13.7267 10.1067ZM12.88 8.69334L13.5234 8.30792L13.5221 8.30584L12.88 8.69334ZM12.46 5.77334H13.21L13.21 5.77129L12.46 5.77334ZM8 4.29334H7.25V6.51334H8H8.75V4.29334H8ZM8.01333 1.33334V0.583344C5.14579 0.583344 2.82333 2.9058 2.82333 5.77334H3.57333H4.32333C4.32333 3.73422 5.97421 2.08334 8.01333 2.08334V1.33334ZM3.57333 5.77334H2.82333V7.17334H3.57333H4.32333V5.77334H3.57333ZM3.57333 7.17334H2.82333C2.82333 7.31182 2.79228 7.5252 2.72782 7.75897C2.66324 7.99316 2.58103 8.19011 2.51119 8.30584L3.15333 8.69334L3.79547 9.08084C3.95897 8.80991 4.08676 8.47353 4.17385 8.15772C4.26105 7.84149 4.32333 7.4882 4.32333 7.17334H3.57333ZM3.15333 8.69334L2.50995 8.30792L1.66328 9.72125L2.30667 10.1067L2.95005 10.4921L3.79672 9.07877L3.15333 8.69334ZM2.30667 10.1067L1.66225 9.72298C1.2975 10.3356 1.21742 11.0329 1.44814 11.6574C1.67898 12.2823 2.19339 12.7595 2.8695 12.9849L3.10667 12.2733L3.34384 11.5618C3.05995 11.4672 2.91436 11.2978 2.85519 11.1376C2.79592 10.9771 2.79584 10.7511 2.95109 10.4904L2.30667 10.1067ZM3.10667 12.2733L2.86994 12.985C6.21029 14.0961 9.82305 14.0961 13.1634 12.985L12.9267 12.2733L12.6899 11.5617C9.65695 12.5706 6.37638 12.5706 3.34339 11.5617L3.10667 12.2733ZM12.9267 12.2733L13.1638 12.9849C14.5214 12.5323 15.1016 10.9438 14.3703 9.72158L13.7267 10.1067L13.0831 10.4918C13.3251 10.8962 13.1319 11.4144 12.6895 11.5618L12.9267 12.2733ZM13.7267 10.1067L14.3701 9.72125L13.5234 8.30792L12.88 8.69334L12.2366 9.07877L13.0833 10.4921L13.7267 10.1067ZM12.88 8.69334L13.5221 8.30584C13.4529 8.19103 13.3706 7.99305 13.3057 7.75703C13.2409 7.52139 13.21 7.30806 13.21 7.17334H12.46H11.71C11.71 7.48529 11.7724 7.83863 11.8593 8.15466C11.9461 8.4703 12.0738 8.80899 12.2379 9.08084L12.88 8.69334ZM12.46 7.17334H13.21V5.77334H12.46H11.71V7.17334H12.46ZM12.46 5.77334L13.21 5.77129C13.2022 2.91908 10.8679 0.583344 8.01333 0.583344V1.33334V2.08334C10.0387 2.08334 11.7045 3.74761 11.71 5.77539L12.46 5.77334ZM10.22 12.5467H9.47C9.47 13.3525 8.80579 14.0167 8 14.0167V14.7667V15.5167C9.63421 15.5167 10.97 14.1809 10.97 12.5467H10.22ZM8 14.7667V14.0167C7.60326 14.0167 7.23099 13.8503 6.96366 13.583L6.43333 14.1133L5.903 14.6437C6.43568 15.1763 7.18341 15.5167 8 15.5167V14.7667ZM6.43333 14.1133L6.96366 13.583C6.69634 13.3157 6.53 12.9434 6.53 12.5467H5.78H5.03C5.03 13.3633 5.37033 14.111 5.903 14.6437L6.43333 14.1133Z" fill="#454545"/>
</svg>
