<svg width="24" height="24" viewBox="0 0 24 24" fill="none" xmlns="http://www.w3.org/2000/svg">
<path d="M11.98 2C11.98 0.895431 11.0785 -0.0170225 9.98931 0.166827C8.3283 0.447204 6.73727 1.07666 5.32428 2.02236C3.35418 3.34094 1.81867 5.21509 0.911926 7.4078C0.00518539 9.60051 -0.232059 12.0133 0.230193 14.3411C0.692445 16.6689 1.83343 18.8071 3.50887 20.4853C5.18431 22.1635 7.31895 23.3064 9.64284 23.7694C11.9667 24.2324 14.3755 23.9948 16.5646 23.0866C18.7537 22.1783 20.6247 20.6402 21.9411 18.6668C22.8858 17.2506 23.5144 15.6558 23.7941 13.9908C23.977 12.9015 23.0646 12 21.9601 12H18.0111C16.9066 12 16.0509 12.9473 15.5265 13.9195C15.4669 14.0301 15.4019 14.1381 15.3318 14.2433C14.8888 14.9073 14.2593 15.4248 13.5227 15.7305C12.7861 16.0361 11.9756 16.116 11.1936 15.9602C10.4116 15.8044 9.69337 15.4199 9.12961 14.8552C8.56585 14.2905 8.18193 13.571 8.02639 12.7877C7.87084 12.0045 7.95067 11.1926 8.25578 10.4548C8.56088 9.71698 9.07756 9.08635 9.74047 8.64267C9.84466 8.57294 9.95173 8.50832 10.0613 8.44892C11.0323 7.92248 11.98 7.06675 11.98 5.96218V2Z" fill="#212121"/>
<ellipse cx="20.0067" cy="5.96" rx="3.99334" ry="4" fill="#212121"/>
</svg>
