<svg width="25" height="25" viewBox="0 0 25 25" fill="none" xmlns="http://www.w3.org/2000/svg">
<path d="M12.75 7.44C12.75 7.02579 12.4142 6.69 12 6.69C11.5858 6.69 11.25 7.02579 11.25 7.44H12H12.75ZM11.25 10.77C11.25 11.1842 11.5858 11.52 12 11.52C12.4142 11.52 12.75 11.1842 12.75 10.77H12H11.25ZM4.73002 14.04L4.08788 13.6525L4.08663 13.6546L4.73002 14.04ZM3.46002 16.16L2.81663 15.7746L2.8156 15.7763L3.46002 16.16ZM4.66002 19.41L4.42285 20.1215L4.4233 20.1217L4.66002 19.41ZM19.39 19.41L19.6267 20.1217L19.6272 20.1215L19.39 19.41ZM20.59 16.16L21.2336 15.7749L21.2334 15.7746L20.59 16.16ZM19.32 14.04L19.9634 13.6546L19.9622 13.6525L19.32 14.04ZM18.69 9.66H19.44L19.44 9.65795L18.69 9.66ZM12 7.44H11.25V10.77H12H12.75V7.44H12ZM12.02 3V2.25C7.92581 2.25 4.61002 5.56579 4.61002 9.66H5.36002H6.11002C6.11002 6.39421 8.75423 3.75 12.02 3.75V3ZM5.36002 9.66H4.61002V11.76H5.36002H6.11002V9.66H5.36002ZM5.36002 11.76H4.61002C4.61002 12.0118 4.55564 12.3669 4.45326 12.7381C4.35076 13.1098 4.21605 13.4401 4.08788 13.6525L4.73002 14.04L5.37216 14.4275C5.59399 14.0599 5.77428 13.5902 5.89928 13.1369C6.0244 12.6831 6.11002 12.1882 6.11002 11.76H5.36002ZM4.73002 14.04L4.08663 13.6546L2.81663 15.7746L3.46002 16.16L4.10341 16.5454L5.37341 14.4254L4.73002 14.04ZM3.46002 16.16L2.8156 15.7763C2.32085 16.6072 2.22077 17.5354 2.52399 18.3562C2.82733 19.1773 3.50674 19.8161 4.42285 20.1215L4.66002 19.41L4.89719 18.6985C4.3733 18.5239 4.06271 18.1927 3.93105 17.8363C3.79927 17.4796 3.81919 17.0228 4.10444 16.5437L3.46002 16.16ZM4.66002 19.41L4.4233 20.1217C9.35697 21.7628 14.6931 21.7628 19.6267 20.1217L19.39 19.41L19.1533 18.6983C14.527 20.2372 9.52307 20.2372 4.89674 18.6983L4.66002 19.41ZM19.39 19.41L19.6272 20.1215C21.4348 19.519 22.2083 17.4038 21.2336 15.7749L20.59 16.16L19.9464 16.5451C20.4318 17.3562 20.0452 18.401 19.1528 18.6985L19.39 19.41ZM20.59 16.16L21.2334 15.7746L19.9634 13.6546L19.32 14.04L18.6766 14.4254L19.9466 16.5454L20.59 16.16ZM19.32 14.04L19.9622 13.6525C19.8345 13.441 19.6997 13.1089 19.5969 12.7349C19.4942 12.3614 19.44 12.0064 19.44 11.76H18.69H17.94C17.94 12.1836 18.0258 12.6786 18.1506 13.1326C18.2753 13.5861 18.4555 14.059 18.6779 14.4275L19.32 14.04ZM18.69 11.76H19.44V9.66H18.69H17.94V11.76H18.69ZM18.69 9.66L19.44 9.65795C19.4289 5.58574 16.0946 2.25 12.02 2.25V3V3.75C15.2654 3.75 17.9311 6.41426 17.94 9.66205L18.69 9.66ZM15.33 19.82H14.58C14.58 21.2358 13.4158 22.4 12 22.4V23.15V23.9C14.2442 23.9 16.08 22.0642 16.08 19.82H15.33ZM12 23.15V22.4C11.2999 22.4 10.6477 22.107 10.1803 21.6397L9.65002 22.17L9.11969 22.7003C9.85236 23.433 10.8801 23.9 12 23.9V23.15ZM9.65002 22.17L10.1803 21.6397C9.71302 21.1723 9.42002 20.5201 9.42002 19.82H8.67002H7.92002C7.92002 20.9399 8.38702 21.9677 9.11969 22.7003L9.65002 22.17Z" fill="#212121"/>
<rect x="14" width="11" height="12" rx="5.5" fill="#4285F4"/>
</svg>
