<svg width="16" height="16" viewBox="0 0 16 16" fill="none" xmlns="http://www.w3.org/2000/svg">
<g clip-path="url(#clip0_2_211)">
<path d="M8 3.33333C5.41133 3.33333 2.91667 4.42267 1.15467 6.32133C1.02333 6.46267 0.844666 6.53467 0.666 6.53467C0.503333 6.53467 0.340666 6.476 0.212666 6.35667C-0.0573339 6.10667 -0.0733338 5.68467 0.177333 5.41467C2.19067 3.24467 5.04133 2 8 2C9.87533 2 11.72 2.49333 13.334 3.42733C13.6527 3.612 13.762 4.02 13.5767 4.33867C13.3933 4.65733 12.9853 4.766 12.666 4.582C11.2547 3.76533 9.64133 3.33333 8 3.33333ZM9.17067 8.144C9.526 8.23267 9.89 8.018 9.98 7.66C10.07 7.30267 9.854 6.94067 9.496 6.85067C9.01 6.728 8.50667 6.666 8 6.666C6.30467 6.666 4.67067 7.37933 3.51733 8.62267C3.26667 8.89267 3.28267 9.31467 3.55267 9.56467C3.68067 9.684 3.844 9.74267 4.006 9.74267C4.18467 9.74267 4.36333 9.67133 4.49467 9.52933C5.66667 8.26533 7.52067 7.728 9.17067 8.144ZM15.8047 4.862C15.544 4.60133 15.1227 4.60133 14.862 4.862L8.34133 11.3827C8.232 11.3533 8.11867 11.3333 8 11.3333C7.26333 11.3333 6.66667 11.93 6.66667 12.6667C6.66667 13.4033 7.26333 14 8 14C8.73667 14 9.33333 13.4033 9.33333 12.6667C9.33333 12.548 9.31267 12.4353 9.284 12.3253L15.8047 5.80467C16.0653 5.544 16.0653 5.12267 15.8047 4.862Z" fill="#454545"/>
</g>
<defs>
<clipPath id="clip0_2_211">
<rect width="16" height="16" fill="white"/>
</clipPath>
</defs>
</svg>
